{
  "source": "C:\\Users\\Peter\\Desktop\\stuff\\MIUN\\quantitative_research\\video_compression\\videos\\BVI-HD\\BVI-HD_CDVL_videos\\ORIG\\PlasmaSlowRandom_1920x1080_60fps.mp4",
  "output": "C:\\Users\\Peter\\Desktop\\stuff\\MIUN\\quantitative_research\\video_compression\\compressed_videos\\BVI-HD\\av1\\8\\PlasmaSlowRandom_1920x1080_60fps_av1.mkv",
  "codec": "av1",
  "ok": "Input #0, mov,mp4,m4a,3gp,3g2,mj2, from 'C:\\Users\\Peter\\Desktop\\stuff\\MIUN\\quantitative_research\\video_compression\\videos\\BVI-HD\\BVI-HD_CDVL_videos\\ORIG\\PlasmaSlowRandom_1920x1080_60fps.mp4':\n  Metadata:\n    major_brand     : isom\n    minor_version   : 512\n    compatible_brands: isomiso2avc1mp41\n    encoder         : Lavf54.28.101\n  Duration: 00:00:05.00, start: 0.000000, bitrate: 23030 kb/s\n  Stream #0:0[0x1](und): Video: h264 (High 4:4:4 Predictive) (avc1 / 0x31637661), yuv420p(progressive), 1920x1080, 23026 kb/s, 60 fps, 60 tbr, 60 tbn (default)\n    Metadata:\n      handler_name    : VideoHandler\n      vendor_id       : [0][0][0][0]\n[out#0/matroska @ 00000207d1b04d00] Codec AVOption b:a (set bitrate (in bits/s)) has not been used for any stream. The most likely reason is either wrong type (e.g. a video option with no video streams) or that it is a private option of some decoder which was not actually used for any stream.\nStream mapping:\n  Stream #0:0 -> #0:0 (h264 (native) -> av1 (libsvtav1))\nPress [q] to stop, [?] for help\nSvt[info]: -------------------------------------------\nSvt[info]: SVT [version]:\tSVT-AV1 Encoder Lib v3.1.0-19-g6ecfe8ec\nSvt[info]: SVT [build]  :\tGCC 15.2.0\t 64 bit\nSvt[info]: LIB Build date: Aug 17 2025 11:37:13\nSvt[info]: -------------------------------------------\nSvt[info]: Level of Parallelism: 5\nSvt[info]: Number of PPCS 93\nSvt[info]: [asm level on system : up to avx2]\nSvt[info]: [asm level selected : up to avx2]\nSvt[info]: -------------------------------------------\nSvt[info]: SVT [config]: main profile\ttier (auto)\tlevel (auto)\nSvt[info]: SVT [config]: width / height / fps numerator / fps denominator \t\t: 1920 / 1080 / 60 / 1\nSvt[info]: SVT [config]: bit-depth / color format \t\t\t\t\t: 8 / YUV420\nSvt[info]: SVT [config]: preset / tune / pred struct \t\t\t\t\t: 4 / PSNR / random access\nSvt[info]: SVT [config]: gop size / mini-gop size / key-frame type \t\t\t: 321 / 16 / key frame\nSvt[info]: SVT [config]: BRC mode / target bitrate (kbps)\t\t\t\t: VBR / 8000 \nSvt[info]: SVT [config]: AQ mode / Variance Boost \t\t\t\t\t: 2 / 0\nSvt[info]: SVT [config]: sharpness / luminance-based QP bias \t\t\t\t: 0 / 0\nSvt[info]: SVT [config]: QP scale compress strength \t\t\t\t\t: 0\nSvt[info]: -------------------------------------------\nOutput #0, matroska, to 'C:\\Users\\Peter\\Desktop\\stuff\\MIUN\\quantitative_research\\video_compression\\compressed_videos\\BVI-HD\\av1\\8\\PlasmaSlowRandom_1920x1080_60fps_av1.mkv':\n  Metadata:\n    major_brand     : isom\n    minor_version   : 512\n    compatible_brands: isomiso2avc1mp41\n    encoder         : Lavf62.3.100\n  Stream #0:0(und): Video: av1 (AV01 / 0x31305641), yuv420p(tv, progressive), 1920x1080, q=2-31, 8000 kb/s, 60 fps, 1k tbn (default)\n    Metadata:\n      encoder         : Lavc62.11.100 libsvtav1\n      handler_name    : VideoHandler\n      vendor_id       : [0][0][0][0]\n    Side data:\n      cpb: bitrate max/min/avg: 0/0/8000000 buffer size: 8000000 vbv_delay: N/A\nframe=    0 fps=0.0 q=0.0 size=       0KiB time=N/A bitrate=N/A speed=N/A elapsed=0:00:01.04    \nframe=    0 fps=0.0 q=0.0 size=       0KiB time=N/A bitrate=N/A speed=N/A elapsed=0:00:01.56    \nframe=    0 fps=0.0 q=0.0 size=       0KiB time=N/A bitrate=N/A speed=N/A elapsed=0:00:02.10    \nframe=    1 fps=0.4 q=3.0 size=       1KiB time=00:00:00.00 bitrate=N/A speed=   0x elapsed=0:00:02.64    \nframe=    1 fps=0.3 q=3.0 size=       1KiB time=00:00:00.00 bitrate=N/A speed=   0x elapsed=0:00:03.17    \nframe=    4 fps=1.1 q=8.0 size=       1KiB time=00:00:00.05 bitrate= 113.9kbits/s speed=0.0135x elapsed=0:00:03.70    \nframe=    7 fps=1.7 q=6.0 size=       1KiB time=00:00:00.10 bitrate=  57.0kbits/s speed=0.0236x elapsed=0:00:04.23    \nframe=   12 fps=2.5 q=5.0 size=       1KiB time=00:00:00.18 bitrate=  31.1kbits/s speed=0.0382x elapsed=0:00:04.79    \nframe=   17 fps=3.2 q=3.0 size=       1KiB time=00:00:00.26 bitrate=  21.4kbits/s speed=0.0499x elapsed=0:00:05.34    \nframe=   20 fps=3.4 q=3.0 size=       1KiB time=00:00:00.31 bitrate=  18.0kbits/s speed=0.054x elapsed=0:00:05.86    \nframe=   24 fps=3.7 q=3.0 size=       1KiB time=00:00:00.38 bitrate=  14.9kbits/s speed=0.0599x elapsed=0:00:06.40    \nframe=   27 fps=3.9 q=4.0 size=       1KiB time=00:00:00.43 bitrate=  13.1kbits/s speed=0.0626x elapsed=0:00:06.92    \nframe=   32 fps=4.3 q=3.0 size=       1KiB time=00:00:00.51 bitrate=  11.0kbits/s speed=0.0693x elapsed=0:00:07.45    \nframe=   35 fps=4.4 q=3.0 size=       1KiB time=00:00:00.56 bitrate=  10.1kbits/s speed=0.071x elapsed=0:00:07.98    \nframe=   38 fps=4.5 q=3.0 size=       1KiB time=00:00:00.61 bitrate=   9.2kbits/s speed=0.0725x elapsed=0:00:08.50    \nframe=   42 fps=4.7 q=3.0 size=       1KiB time=00:00:00.68 bitrate=   8.3kbits/s speed=0.0757x elapsed=0:00:09.02    \nframe=   48 fps=5.0 q=3.0 size=       1KiB time=00:00:00.78 bitrate=   7.3kbits/s speed=0.0819x elapsed=0:00:09.56    \nframe=   51 fps=5.1 q=3.0 size=       1KiB time=00:00:00.83 bitrate=   6.8kbits/s speed=0.0825x elapsed=0:00:10.09    \nframe=   54 fps=5.1 q=2.0 size=       1KiB time=00:00:00.88 bitrate=   6.4kbits/s speed=0.0832x elapsed=0:00:10.61    \nframe=   60 fps=5.4 q=2.0 size=       1KiB time=00:00:00.98 bitrate=   5.8kbits/s speed=0.0883x elapsed=0:00:11.13    \nframe=   65 fps=5.6 q=1.0 size=       1KiB time=00:00:01.06 bitrate=   5.3kbits/s speed=0.0913x elapsed=0:00:11.68    \nframe=   69 fps=5.7 q=3.0 size=       1KiB time=00:00:01.13 bitrate=   5.0kbits/s speed=0.093x elapsed=0:00:12.19    \nframe=   72 fps=5.7 q=3.0 size=       1KiB time=00:00:01.18 bitrate=   4.8kbits/s speed=0.093x elapsed=0:00:12.72    \nframe=   77 fps=5.8 q=3.0 size=       1KiB time=00:00:01.26 bitrate=   4.5kbits/s speed=0.0957x elapsed=0:00:13.23    \nframe=   82 fps=6.0 q=3.0 size=       1KiB time=00:00:01.35 bitrate=   4.2kbits/s speed=0.0981x elapsed=0:00:13.75    \nframe=   86 fps=6.0 q=3.0 size=       1KiB time=00:00:01.41 bitrate=   4.0kbits/s speed=0.0992x elapsed=0:00:14.27    \nframe=   90 fps=6.1 q=2.0 size=       1KiB time=00:00:01.48 bitrate=   3.8kbits/s speed= 0.1x elapsed=0:00:14.81    \nframe=   96 fps=6.3 q=2.0 size=       1KiB time=00:00:01.58 bitrate=   3.6kbits/s speed=0.103x elapsed=0:00:15.33    \nframe=  100 fps=6.3 q=2.0 size=       1KiB time=00:00:01.65 bitrate=   3.5kbits/s speed=0.104x elapsed=0:00:15.86    \nframe=  104 fps=6.3 q=2.0 size=       1KiB time=00:00:01.71 bitrate=   3.3kbits/s speed=0.105x elapsed=0:00:16.38    \nframe=  109 fps=6.4 q=2.0 size=       1KiB time=00:00:01.80 bitrate=   3.2kbits/s speed=0.107x elapsed=0:00:16.90    \nframe=  114 fps=6.6 q=2.0 size=       1KiB time=00:00:01.88 bitrate=   3.0kbits/s speed=0.108x elapsed=0:00:17.40    \nframe=  118 fps=6.6 q=2.0 size=       1KiB time=00:00:01.95 bitrate=   2.9kbits/s speed=0.109x elapsed=0:00:17.92    \nframe=  122 fps=6.6 q=2.0 size=       1KiB time=00:00:02.01 bitrate=   2.8kbits/s speed=0.109x elapsed=0:00:18.44    \nframe=  128 fps=6.8 q=3.0 size=       1KiB time=00:00:02.11 bitrate=   2.7kbits/s speed=0.112x elapsed=0:00:18.95    \nframe=  132 fps=6.8 q=3.0 size=       1KiB time=00:00:02.18 bitrate=   2.6kbits/s speed=0.112x elapsed=0:00:19.47    \nframe=  136 fps=6.8 q=3.0 size=       1KiB time=00:00:02.25 bitrate=   2.5kbits/s speed=0.113x elapsed=0:00:19.99    \nframe=  142 fps=6.9 q=3.0 size=       1KiB time=00:00:02.35 bitrate=   2.4kbits/s speed=0.115x elapsed=0:00:20.50    \nframe=  146 fps=6.9 q=3.0 size=       1KiB time=00:00:02.41 bitrate=   2.4kbits/s speed=0.115x elapsed=0:00:21.01    \nframe=  150 fps=7.0 q=3.0 size=       1KiB time=00:00:02.48 bitrate=   2.3kbits/s speed=0.115x elapsed=0:00:21.52    \nframe=  155 fps=7.0 q=2.0 size=       1KiB time=00:00:02.56 bitrate=   2.2kbits/s speed=0.116x elapsed=0:00:22.06    \nframe=  161 fps=7.1 q=1.0 size=       1KiB time=00:00:02.66 bitrate=   2.1kbits/s speed=0.118x elapsed=0:00:22.58    \nframe=  165 fps=7.1 q=2.0 size=       1KiB time=00:00:02.73 bitrate=   2.1kbits/s speed=0.118x elapsed=0:00:23.10    \nframe=  169 fps=7.2 q=1.0 size=       1KiB time=00:00:02.80 bitrate=   2.0kbits/s speed=0.119x elapsed=0:00:23.61    \nframe=  175 fps=7.3 q=2.0 size=       1KiB time=00:00:02.90 bitrate=   2.0kbits/s speed=0.12x elapsed=0:00:24.13    \nframe=  178 fps=7.2 q=3.0 size=       1KiB time=00:00:02.95 bitrate=   1.9kbits/s speed=0.12x elapsed=0:00:24.65    \nframe=  182 fps=7.2 q=3.0 size=       1KiB time=00:00:03.01 bitrate=   1.9kbits/s speed=0.12x elapsed=0:00:25.17    \nframe=  188 fps=7.3 q=2.0 size=       1KiB time=00:00:03.11 bitrate=   1.8kbits/s speed=0.121x elapsed=0:00:25.69    \nframe=  193 fps=7.4 q=1.0 size=       1KiB time=00:00:03.20 bitrate=   1.8kbits/s speed=0.122x elapsed=0:00:26.23    \nframe=  197 fps=7.4 q=2.0 size=       1KiB time=00:00:03.26 bitrate=   1.7kbits/s speed=0.122x elapsed=0:00:26.73    \nframe=  201 fps=7.4 q=1.0 size=       1KiB time=00:00:03.33 bitrate=   1.7kbits/s speed=0.122x elapsed=0:00:27.25    \nframe=  209 fps=7.5 q=1.0 size=       1KiB time=00:00:03.46 bitrate=   1.6kbits/s speed=0.125x elapsed=0:00:27.77    \nframe=  213 fps=7.5 q=2.0 size=       1KiB time=00:00:03.53 bitrate=   1.6kbits/s speed=0.125x elapsed=0:00:28.29    \nframe=  217 fps=7.5 q=1.0 size=       1KiB time=00:00:03.60 bitrate=   1.6kbits/s speed=0.125x elapsed=0:00:28.81    \nframe=  223 fps=7.6 q=2.0 size=       1KiB time=00:00:03.70 bitrate=   1.5kbits/s speed=0.126x elapsed=0:00:29.33    \nframe=  229 fps=7.7 q=2.0 size=       1KiB time=00:00:03.80 bitrate=   1.5kbits/s speed=0.127x elapsed=0:00:29.84    \nframe=  233 fps=7.7 q=1.0 size=       1KiB time=00:00:03.86 bitrate=   1.5kbits/s speed=0.127x elapsed=0:00:30.36    \nframe=  237 fps=7.7 q=2.0 size=       1KiB time=00:00:03.93 bitrate=   1.4kbits/s speed=0.127x elapsed=0:00:30.88    \nframe=  243 fps=7.7 q=2.0 size=       1KiB time=00:00:04.03 bitrate=   1.4kbits/s speed=0.128x elapsed=0:00:31.39    \nframe=  249 fps=7.8 q=1.0 size=       1KiB time=00:00:04.13 bitrate=   1.4kbits/s speed=0.13x elapsed=0:00:31.90    \nframe=  253 fps=7.8 q=2.0 size=       1KiB time=00:00:04.20 bitrate=   1.4kbits/s speed=0.129x elapsed=0:00:32.43    \nframe=  259 fps=7.9 q=2.0 size=       1KiB time=00:00:04.30 bitrate=   1.3kbits/s speed=0.13x elapsed=0:00:32.95    \nframe=  265 fps=7.9 q=1.0 size=       1KiB time=00:00:04.40 bitrate=   1.3kbits/s speed=0.131x elapsed=0:00:33.47    \nframe=  269 fps=7.9 q=2.0 size=       1KiB time=00:00:04.46 bitrate=   1.3kbits/s speed=0.131x elapsed=0:00:33.99    \nframe=  273 fps=7.9 q=1.0 size=       1KiB time=00:00:04.53 bitrate=   1.3kbits/s speed=0.131x elapsed=0:00:34.49    \nframe=  281 fps=8.0 q=1.0 size=       1KiB time=00:00:04.66 bitrate=   1.2kbits/s speed=0.133x elapsed=0:00:35.02    \nframe=  285 fps=8.0 q=3.0 size=       1KiB time=00:00:04.73 bitrate=   1.2kbits/s speed=0.133x elapsed=0:00:35.53    \n[out#0/matroska @ 00000207d1b04d00] video:4878KiB audio:0KiB subtitle:0KiB other streams:0KiB global headers:0KiB muxing overhead: 0.044323%\nframe=  300 fps=8.4 q=8.0 Lsize=    4880KiB time=00:00:04.98 bitrate=8022.4kbits/s speed=0.139x elapsed=0:00:35.88    \n",
  "seconds": 36.20497131347656,
  "probe_out": {}
}